<svg xmlns="http://www.w3.org/2000/svg" xmlns:xlink="http://www.w3.org/1999/xlink" width="645" height="296" viewBox="0 0 645 296">
    <defs>
        <path id="a" d="M151.274 100.158c0 55.155-33.862 99.867-75.635 99.867S.006 155.313.006 100.158c0-55.16 33.86-99.87 75.633-99.87 41.773 0 75.635 44.71 75.635 99.87z"/>
        <path id="b" d="M78.788 152.223c1.269 1.992 2.535 3.979 3.804 5.968-1.664-1.714-2.85-3.749-3.804-5.968zM92.37 91.605c-.113-.042-.23-.08-.34-.126-1.21 3.35-2.419 6.7-3.626 10.051 1.625-3.191 2.9-6.52 3.966-9.925zm-22.638 43.797c-.476 4.919-.16 9.818.395 14.711-1.713-3.717-1.768-10.648-.395-14.711zM169.84 74.418c-.356-.282-.674-.521-.972-.777-1.897-1.64-3.742-3.348-5.698-4.916-3.555-2.845-7.453-5.165-11.604-7.038-8.062-3.64-16.535-5.194-25.358-4.848-1.428.055-2.901.049-4.264.6-1.81.732-3.598 1.526-5.385 2.317-1.036.453-1.78 1.234-2.454 2.138-2.674 3.578-4.798 7.47-6.53 11.568-1.542 3.646-2.944 7.356-4.394 11.034-.071.178-.062.385-.094.609.327.14.605.269.894.373 2.166.777 4.348 1.503 6.491 2.342 1.23.477 2.354.538 3.669.179 4.329-1.17 8.784-1.514 13.249-1.65 5.465-.171 10.917.068 16.344.687 2.765.315 5.527.642 8.266 1.099 3.451.573 6.89 1.24 10.318 1.954 2.48.515 4.974 1.066 7.399 1.785 3.082.914 6.122 1.024 9.227.188 1.749-.473 3.523-.894 5.313-1.186 4.08-.667 8.195-.771 12.323-.61.35.014.706-.057 1.127-.1-.126-.408-.188-.674-.285-.923-3.47-8.603-9.211-15.246-17.16-19.974a8.409 8.409 0 0 0-3.48-1.17c-2.426-.252-4.611.86-5.68 3.066-.472.978-.8 2.035-1.262 3.253zm21.026 101.53c.36-.511.67-.916.932-1.347a82.2 82.2 0 0 0 6.443-13.033c1.655-4.248 2.94-8.607 3.688-13.107.745-4.43 1.027-8.892.48-13.377-.16-1.299-.305-2.602-.483-3.895-.12-.852-.236-.926-1.05-.855-2.874.26-5.698-.02-8.463-.807-1.887-.541-3.733-1.212-5.352-2.359-2.392-1.691-3.804-4.115-4.801-6.808-1.506-4.047-2.082-8.266-2.28-12.553-.064-1.306-.084-2.618-.2-3.92-.224-2.473-1.535-4.226-3.733-5.315-.748-.373-1.574-.541-2.406-.32-.758.2-1.502.453-2.237.735-.826.314-1.4.832-1.318 1.843.032.37-.113.749-.152 1.125-.454 4.348-1.529 8.541-3.338 12.524-1.555 3.418-3.633 6.474-6.453 8.989-3.724 3.324-8.104 5.392-12.845 6.746-2.913.833-5.876 1.358-8.916 1.51-2.998.152-5.961.058-8.907-.55-3.578-.74-6.492-2.44-8.597-5.545-2.162-3.195-3.493-6.695-4.273-10.437-.726-3.484-.923-7.029-1.147-10.57-.08-1.303-.097-2.635-.401-3.892-.466-1.902-1.418-3.594-3.455-4.167-3.898-1.102-7.822-2.1-11.74-3.134-.79-.204-.796-.19-1.217.516-1.137 1.886-2.276 3.768-3.39 5.667-.207.35-.353.749-.463 1.144-.424 1.487-.793 2.994-1.234 4.478-1.107 3.736-2.36 7.42-4.209 10.868-.832 1.552-1.774 3.027-3.008 4.3-.89.927-1.897 1.692-3.18 2.016-.423.107-.85.204-1.382-.13.272-.175.457-.291.635-.408.515-.334 1.065-.626 1.544-1.011 1.596-1.267 2.649-2.965 3.568-4.747 1.622-3.143 2.623-6.507 3.445-9.929.062-.256.094-.518.136-.774-.482.223-.812.554-1.13.894-1.628 1.737-3.406 3.305-5.407 4.601a3.8 3.8 0 0 0-1.295 1.423c-1.612 2.962-3.27 5.9-4.873 8.866-.249.463-.414 1.04-.4 1.561.06 2.026.132 4.06.329 6.083.385 3.878 1.15 7.699 2.283 11.432 1.547 5.094 3.717 9.922 6.446 14.497 1.519 2.547 3.176 4.977 5.29 7.09 1.82 1.828 3.552 3.743 5.291 5.645.635.7 1.324 1.276 2.173 1.691.958.47 1.89.995 2.797 1.552 2.357 1.452 4.559 3.092 6 5.541.388.668.91 1.053 1.605 1.339 3.883 1.578 7.771 3.14 11.614 4.808 4.601 2.003 9.076 4.265 13.269 7.048 1.725 1.147 3.36 2.398 4.779 3.911.88.94 1.622 1.964 1.91 3.254.103.43.204.88-.275 1.315-.188-.168-.402-.324-.58-.509-.573-.586-1.107-1.224-1.706-1.782-2.804-2.595-6.022-4.562-9.396-6.293-4.536-2.33-9.312-4.06-14.182-5.54-.812-.247-1.635-.458-2.535-.704.088.156.107.234.15.263.174.103.355.204.543.285 3.659 1.604 7.165 3.473 10.484 5.703 3.795 2.544 7.24 5.473 10.112 9.04.223.28.41.587.618.882a4.63 4.63 0 0 0-.185.172 65.227 65.227 0 0 0-8.531-6.578c-3.911-2.534-8.567-5.01-9.564-5.03.913.555 1.777 1.044 2.603 1.592a588.022 588.022 0 0 1 7.02 4.695c.407.272.73.67 1.09 1.01a5.438 5.438 0 0 1-.132.234l-3.432-1.079c-.023.068-.05.136-.068.204.29.162.582.337.877.496 4.87 2.58 9.519 5.505 13.75 9.054 2.112 1.775 4.064 3.713 5.77 5.884.234.295.57.574.48 1.147-2.532-1.04-4.944-2.168-7.535-2.867 5.702 5.874 12.178 10.706 19.3 14.795.12-.454.247-.881.337-1.316.402-1.847.787-3.703 1.189-5.55.077-.353.038-.775.602-.998.417.651.858 1.293 1.25 1.963 3.166 5.428 5.947 11.005 6.74 17.398 2.063-4.501 4.041-9.002 4.896-13.947.227.34.353.68.447 1.03.43 1.702.855 3.41 1.288 5.11.081.309.211.604.373 1.067.437-.512.754-.869 1.049-1.241a48.743 48.743 0 0 0 5.737-9.167c1.833-3.83 3.073-7.82 3.293-12.077.155-3.026.868-5.94 1.913-8.746 1.156-3.098 2.48-6.124 3.747-9.176.88-2.133 1.816-4.252 2.276-6.523.233-1.154.294-2.32-.094-3.47-.26-.782-.735-1.164-1.6-1.148-1.887.033-3.775.003-5.662-.023-4.54-.064-9.063.292-13.56.791-4.154.46-8.282 1.196-12.417 1.812-.852.123-1.693.294-2.545.372-3.043.276-6.084.373-9.14.062-4.75-.486-9.23-1.782-13.417-4.064-6.162-3.347-10.853-8.237-14.548-14.154a52.638 52.638 0 0 1-4.82-9.915c-.114-.308-.276-.596-.45-.966-.538.253-.982.434-1.396.665-1.872 1.062-3.474 2.456-4.87 4.092-.2.24-.327.629-.848.493 0-.276-.042-.558.01-.814.265-1.176.472-2.368.851-3.509.505-1.552 1.321-2.955 2.555-4.063 2.108-1.9 4.62-2.291 7.317-1.919 2.762.38 5.281 1.471 7.722 2.748.136.071.237.207.56.493-.595.013-.952.022-1.31.026-1.477.016-2.954-.004-4.424.058-.864.036-1.02.269-.867 1.118.136.78.291 1.562.505 2.32 1.593 5.547 4.25 10.508 8.058 14.85 3.594 4.093 7.907 7.116 13.068 8.866 4.15 1.403 8.412 1.886 12.786 1.578 3.244-.227 6.407-.761 9.46-1.863 5.346-1.925 9.42-5.314 11.893-10.502 1.852-3.882 2.448-8.004 2.331-12.265-.013-.6-.353-.943-.754-1.27-1.211-.966-2.425-1.922-3.633-2.887-3.98-3.173-7.949-6.351-11.938-9.507-.492-.39-.676-.814-.634-1.416.11-1.361.437-2.658 1.194-3.801.703-1.07 1.655-1.724 2.999-1.689.89.026 1.787.059 2.674-.013.67-.055 1.34-.226 1.988-.408 1.088-.311 2.137-.765 3.241-.995 3.659-.761 7.35-.94 11.06-.483 1.946.237 3.892.512 5.705 1.297.94.408 1.862.683 2.885.609 1.577-.11 2.587.739 3.293 2.035.482.888.683 1.866.79 2.87.1.97-.165 1.673-.955 2.318-4.598 3.775-9.154 7.592-13.725 11.393-1.807 1.503-1.823 1.5-1.509 3.827.806 6.101 2.937 11.665 6.68 16.57 1.356 1.783 2.865 3.42 4.756 4.959zM76.01 239.992c.33.703.624 1.426.997 2.106 1.013 1.883 2.292 3.59 3.649 5.24 2.05 2.495 4.063 5.016 6.129 7.58-.169-.05-.343-.072-.496-.147-5.122-2.592-10.111-5.408-14.809-8.72-3.685-2.595-6.77-5.813-9.59-9.302-4.446-5.496-8.286-11.413-11.831-17.518-2.273-3.927-4.41-7.939-6.608-11.911a1.35 1.35 0 0 0-.557-.564c-.03.243-.104.489-.075.729.298 2.676.9 5.288 1.626 7.88.884 3.182 1.823 6.352 2.24 9.644.042.31.117.622.097.923-.013.191-.168.37-.346.726-.233-.457-.395-.713-.499-.991-2.211-5.94-5.562-11.212-9.532-16.095-3.056-3.762-6.242-7.418-9.412-11.082-1.198-1.387-2.276-2.826-3.137-4.456-2.775-5.269-5.572-10.531-7.418-16.221-1.1-3.396-1.975-6.87-2.882-10.33-.777-2.943-1.69-5.817-3.27-8.442-.408-.674-.897-1.13-1.732-1.027-.819.1-1.272.603-1.48 1.377-.352 1.29-.722 2.576-1.107 3.96-.133-.237-.272-.411-.35-.616-1.732-4.646-3.189-9.377-4.468-14.17-.744-2.803-.702-5.606-.547-8.408.182-3.273.657-6.543 1.639-9.692.582-1.86 1.217-3.733 2.075-5.477.657-1.341 1.635-2.55 2.59-3.716 2.072-2.521 4.222-4.978 6.34-7.466.204-.24.401-.486.602-.732a5.995 5.995 0 0 0-.191-.214c-.848.515-1.693 1.03-2.545 1.542-.052-.052-.11-.104-.168-.159 3.017-6.205 6.563-12.115 10.35-17.88 3.795-5.778 7.907-11.325 12.236-16.902-.987.276-2.486 1.672-7.955 7.343-2.49 2.586-4.75 5.37-6.86 8.282-.062-.035-.117-.071-.179-.107.641-1.685 1.276-3.366 1.95-5.136-.516.023-.687.344-.898.577-2.61 2.968-5.258 5.907-7.812 8.924-3.714 4.381-7.217 8.934-10.559 13.613-.074.107-.168.2-.365.434 0-.324-.036-.509.003-.667 1.114-4.21 2.723-8.23 4.623-12.139 3.028-6.215 6.774-11.973 11.002-17.42a106.88 106.88 0 0 1 14.502-15.337c.236-.204.46-.418.683-.628.071-.065.117-.156.104-.38-.44.208-.887.412-1.318.639-4.96 2.589-10.215 3.995-15.823 3.947-2.172-.023-4.322-.234-6.424-.797-.165-.043-.33-.085-.488-.146-.059-.02-.104-.081-.253-.217 1.11-.363 2.153-.678 3.18-1.04 2.162-.775 4.341-1.517 6.465-2.379 2.756-1.121 5.025-2.958 7.013-5.146 4.413-4.863 8.846-9.708 13.521-14.329 3.792-3.745 7.641-7.426 12.051-10.46 4.591-3.156 9.48-5.683 14.835-7.255 3.04-.887 6.136-1.487 9.309-1.626.236-.007.48-.046.712-.091.094-.016.178-.081.496-.233-.975-.133-1.726-.253-2.484-.33-3.927-.393-7.848-.82-11.73-1.556-6.058-1.15-11.967-2.784-17.594-5.34-4.368-1.99-8.444-4.433-12.032-7.67-2.308-2.084-4.338-4.4-5.87-7.136-.097-.171-.168-.36-.272-.586.55.2.548.204 1.273.923.411.412.838.817 1.27 1.206a35 35 0 0 0 2.545 2.1 56.778 56.778 0 0 0 2.783 1.96c.457.298.923.59 1.393.872.472.282.952.554 1.434.816a59.02 59.02 0 0 0 3.014 1.575 58.615 58.615 0 0 0 3.108 1.367c.509.211 1.024.402 1.535.597.515.197 1.027.398 1.545.58.55.188 1.107.356 1.667.528.521.165 1.046.324 1.577.47.528.149 1.062.288 1.593.418.534.133 1.068.262 1.603.379.57.123 1.143.233 1.716.347.54.107 1.075.223 1.615.32.541.098 1.085.185 1.629.26.576.084 1.156.165 1.735.217.525.052 1.053.074 1.577.11.032-.084.062-.162.09-.243a84.965 84.965 0 0 0-.844-.668c-4.177-3.308-6.1-7.663-6.032-12.961.013-1.25.45-2.362 1.049-3.419.47-.826 1.013-1.617 1.538-2.443.463.324.281.697.262 1.005-.146 2.657.324 5.22 1.107 7.738 1.11 3.583 3.565 5.887 7.013 7.174 3.578 1.328 7.314 1.873 11.096 2.025 2.639.104 5.284-.006 7.93-.032.307-.007.615-.104.935-.298-4.248-1.896-8.48-3.727-12.524-5.995 3.351.83 6.703 1.682 10.063 2.472 3.406.807 6.838 1.481 10.387 1.828-.376-.224-.738-.47-1.127-.664-2.056-1.04-4.08-2.136-5.931-3.52-.133-.1-.262-.21-.577-.463.483.071.765.088 1.03.159 3.248.881 6.56 1.452 9.882 1.996 6 .975 12.038 1.64 18.086 2.21 3.726.35 7.456.641 11.19.868 6.222.373 12.355 1.293 18.348 3.033 5.692 1.653 11.115 3.966 16.185 7.068.353.21.713.398 1.185.505-.103-.178-.187-.38-.323-.531-1.658-1.838-3.646-3.244-5.777-4.446-3.561-2.003-7.388-3.292-11.338-4.261-4.747-1.167-9.574-1.78-14.44-2.175a.802.802 0 0 1-.525-.204c.308-.074.615-.168.93-.214 4.856-.722 9.742-1.12 14.653-1.27a88.08 88.08 0 0 1 14.078.703c5.265.687 10.39 1.945 15.205 4.265 3.309 1.587 6.31 3.622 8.77 6.39.318.353.69.66 1.037.991-.117-1.053-.434-1.52-3.361-5.213 1 .755 2.027 1.48 3.005 2.268 4.335 3.519 8.03 7.598 10.833 12.465 2.755 4.796 4.335 9.948 4.717 15.47.03.411-.038.862.645.94.074-.188.217-.39.233-.597a465.9 465.9 0 0 0 .453-5.142c.036-.431.058-.859.204-1.303.518.836.567 1.796.839 2.725.55-1.5-.44-6.911-1.862-10.715-1.298-3.455-3.163-6.559-5.527-9.375-2.376-2.825-5.229-5.113-8.169-7.33 1.066.6 2.15 1.18 3.202 1.809 4.316 2.585 8.36 5.544 12.038 8.992 4.478 4.193 8.257 8.927 10.866 14.536 1.985 4.264 3.086 8.749 3.27 13.45.017.328.059.652.185.97.839-3.562.952-7.188 1.069-10.833 2.363 5.311 3.833 10.836 4.134 16.652.301 5.83-.576 11.452-3.192 16.908.638-.123.854-.456 1.088-.764.974-1.27 1.664-2.687 2.256-4.16.14-.344.288-.681.531-.986.46 4.203.081 8.153-3.354 11.124.764 1.193 1.48 2.32 2.198 3.445.075.12.175.227.204.356.263 1.154 1.082 1.552 2.144 1.737.874.152 1.722.428 2.716.68.013 1.4.104 2.771.026 4.129-.13 2.232-.35 4.458-.59 6.685-.07.641.03 1.192.244 1.795.676 1.912 1.33 3.83 1.897 5.777.648 2.213 1.23 4.443 1.48 6.75.34 3.117.255 6.202-.813 9.173-.392 1.09-1.01 2.103-1.583 3.118-.237.418-.421.739-.12 1.212.152.243.204.593.191.89-.11 2.172.405 4.246.91 6.316.945 3.902 1.389 7.865 1.544 11.866.217 5.746-.466 11.406-1.583 17.032-1.253 6.328-3.037 12.508-5.145 18.596a555.524 555.524 0 0 1-4.028 11.277c-.414 1.124-1.042 2.167-1.567 3.253a67.842 67.842 0 0 0-3.642 9.206c-.068.22-.181.43-.363.855-.337-.696-.602-1.231-.861-1.769-.346-.72-.648-.8-1.22-.227-1.098 1.108-2.015 2.372-2.64 3.791-.984 2.236-1.906 4.501-2.771 6.786-4.478 11.873-10.5 22.864-18.42 32.796-4.474 5.609-9.376 10.793-14.456 15.838-4.125 4.096-8.065 8.367-11.562 13.027-.181.236-.389.457-.651.768-.382-.399-.696-.746-1.023-1.083-3.62-3.674-7.327-7.255-11.219-10.644-4.351-3.801-8.858-7.404-13.592-10.726-5.009-3.516-10.154-6.811-15.59-9.627-1.897-.982-3.888-1.737-5.993-2.139-2.859-.547-5.608-.223-8.191 1.16-1.23.658-1.733 1.702-1.538 3.098.026.198.061.399.113.716-9.409-3.016-17.947-7.307-24.62-14.77-.09.075-.178.147-.265.221z"/>
    </defs>
    <g fill="none" fill-rule="evenodd">
        <path fill="#323838" fill-rule="nonzero" d="M302.66 235.4h14.28c8.28 0 12.42 4.6 12.42 13.8 0 8.8-4.34 13.2-13.02 13.2h-4.86V284h-8.82v-48.6zm12.24 20.76c2.4 0 4.02-.51 4.86-1.53.84-1.02 1.26-2.85 1.26-5.49 0-1.92-.14-3.39-.42-4.41-.28-1.02-.85-1.79-1.71-2.31s-2.19-.78-3.99-.78h-3.42v14.52h3.42zm25.08 28.38c-1.48 0-2.79-.4-3.93-1.2a8.062 8.062 0 0 1-2.64-3.09 8.796 8.796 0 0 1-.93-3.93c0-2.68.63-4.89 1.89-6.63 1.26-1.74 2.82-3.09 4.68-4.05 1.86-.96 4.33-2.02 7.41-3.18v-3c0-1.6-.19-2.77-.57-3.51-.38-.74-1.11-1.11-2.19-1.11-1.84 0-2.8 1.28-2.88 3.84l-.12 2.1-7.74-.3c.12-4 1.11-6.95 2.97-8.85 1.86-1.9 4.67-2.85 8.43-2.85 3.4 0 5.92.93 7.56 2.79 1.64 1.86 2.46 4.49 2.46 7.89v16.02c0 2.48.2 5.32.6 8.52h-7.32c-.4-2.16-.68-3.82-.84-4.98-.48 1.56-1.29 2.87-2.43 3.93-1.14 1.06-2.61 1.59-4.41 1.59zm3-6.06c.68 0 1.33-.24 1.95-.72a7.5 7.5 0 0 0 1.53-1.56v-9.72c-2.12 1.24-3.7 2.43-4.74 3.57-1.04 1.14-1.56 2.57-1.56 4.29 0 1.28.25 2.29.75 3.03.5.74 1.19 1.11 2.07 1.11zm27.6 16.92c-3.68 0-6.6-.57-8.76-1.71-2.16-1.14-3.24-2.85-3.24-5.13 0-1.52.48-2.85 1.44-3.99.96-1.14 2.22-2.07 3.78-2.79-1.32-.4-2.33-.99-3.03-1.77-.7-.78-1.05-1.73-1.05-2.85 0-1.28.31-2.4.93-3.36.62-.96 1.59-2.02 2.91-3.18-1.24-1-2.17-2.27-2.79-3.81-.62-1.54-.93-3.49-.93-5.85 0-3.96.95-6.98 2.85-9.06 1.9-2.08 4.67-3.12 8.31-3.12 3.52 0 6.08 1.08 7.68 3.24.36-.56.94-1.18 1.74-1.86.8-.68 1.7-1.26 2.7-1.74l1.14-.48 1.92 4.38c-.72.2-1.7.55-2.94 1.05s-2.14.93-2.7 1.29c.36.8.66 1.8.9 3s.36 2.34.36 3.42c0 3.8-.88 6.75-2.64 8.85-1.76 2.1-4.48 3.15-8.16 3.15-1.6 0-3.16-.24-4.68-.72-.68 1-1.02 1.8-1.02 2.4 0 .48.24.85.72 1.11.48.26 1.28.45 2.4.57l7.26.72c5.6.6 8.4 3.52 8.4 8.76 0 3.16-1.09 5.53-3.27 7.11-2.18 1.58-5.59 2.37-10.23 2.37zm.42-27.48c1.36 0 2.26-.52 2.7-1.56.44-1.04.66-2.84.66-5.4 0-2.52-.22-4.32-.66-5.4-.44-1.08-1.34-1.62-2.7-1.62s-2.28.53-2.76 1.59-.72 2.87-.72 5.43c0 2.4.24 4.16.72 5.28s1.4 1.68 2.76 1.68zm.48 21.36c2.28 0 3.97-.23 5.07-.69 1.1-.46 1.65-1.25 1.65-2.37 0-.96-.35-1.67-1.05-2.13-.7-.46-2.01-.79-3.93-.99l-5.94-.54c-.76.64-1.34 1.25-1.74 1.83-.4.58-.6 1.23-.6 1.95 0 1 .5 1.74 1.5 2.22 1 .48 2.68.72 5.04.72zm27.42-4.74c-3.84 0-6.66-1.07-8.46-3.21-1.8-2.14-2.7-5.31-2.7-9.51V261.5c0-4.24.91-7.42 2.73-9.54 1.82-2.12 4.63-3.18 8.43-3.18 3.92 0 6.69 1.1 8.31 3.3 1.62 2.2 2.43 5.52 2.43 9.96v4.98h-13.8v6.84c0 1.68.25 2.9.75 3.66.5.76 1.29 1.14 2.37 1.14 1.04 0 1.79-.37 2.25-1.11.46-.74.69-1.87.69-3.39v-2.94h7.68v2.4c0 3.56-.9 6.27-2.7 8.13-1.8 1.86-4.46 2.79-7.98 2.79zm3-21.54v-3.3c0-1.8-.22-3.09-.66-3.87-.44-.78-1.22-1.17-2.34-1.17-1.16 0-1.96.42-2.4 1.26-.44.84-.66 2.4-.66 4.68v2.4h6.06zm27.84-13.68h8.16v3.42c2.76-2.64 5.56-3.96 8.4-3.96 1.96 0 3.43.72 4.41 2.16.98 1.44 1.47 3.26 1.47 5.46V284h-8.16v-25.98c0-1.12-.17-1.94-.51-2.46-.34-.52-.95-.78-1.83-.78-.96 0-2.22.56-3.78 1.68V284h-8.16v-34.68zm38.94 35.22c-3.72 0-6.5-1.03-8.34-3.09-1.84-2.06-2.76-5.05-2.76-8.97v-11.64c0-3.92.92-6.91 2.76-8.97 1.84-2.06 4.62-3.09 8.34-3.09 3.72 0 6.51 1.03 8.37 3.09 1.86 2.06 2.79 5.05 2.79 8.97v11.64c0 3.92-.93 6.91-2.79 8.97-1.86 2.06-4.65 3.09-8.37 3.09zm.06-5.64c1.24 0 2.06-.49 2.46-1.47.4-.98.6-2.43.6-4.35V260.3c0-1.92-.2-3.38-.6-4.38-.4-1-1.22-1.5-2.46-1.5-1.28 0-2.12.5-2.52 1.5-.4 1-.6 2.46-.6 4.38v12.78c0 1.92.2 3.37.6 4.35.4.98 1.24 1.47 2.52 1.47zm26.76 5.52c-3.16 0-5.39-.76-6.69-2.28-1.3-1.52-1.95-3.78-1.95-6.78v-20.7h-3.48v-5.34h3.48v-10.38h8.22v10.38h5.22v5.34h-5.22v19.98c0 1.16.25 2 .75 2.52s1.29.78 2.37.78c1 0 1.84-.08 2.52-.24v6.3c-1.6.28-3.34.42-5.22.42zm26.16-29.4h-3.72v-5.7h3.72v-2.22c0-2.36.2-4.26.6-5.7.4-1.44 1.22-2.56 2.46-3.36 1.24-.8 3.06-1.2 5.46-1.2 1.32 0 2.8.12 4.44.36v6c-1.08-.2-1.82-.3-2.22-.3-.96 0-1.64.3-2.04.9-.4.6-.6 1.5-.6 2.7v2.82h4.86v5.7h-4.86V284h-8.1v-28.98zm27.06 29.52c-3.72 0-6.5-1.03-8.34-3.09-1.84-2.06-2.76-5.05-2.76-8.97v-11.64c0-3.92.92-6.91 2.76-8.97 1.84-2.06 4.62-3.09 8.34-3.09 3.72 0 6.51 1.03 8.37 3.09 1.86 2.06 2.79 5.05 2.79 8.97v11.64c0 3.92-.93 6.91-2.79 8.97-1.86 2.06-4.65 3.09-8.37 3.09zm.06-5.64c1.24 0 2.06-.49 2.46-1.47.4-.98.6-2.43.6-4.35V260.3c0-1.92-.2-3.38-.6-4.38-.4-1-1.22-1.5-2.46-1.5-1.28 0-2.12.5-2.52 1.5-.4 1-.6 2.46-.6 4.38v12.78c0 1.92.2 3.37.6 4.35.4.98 1.24 1.47 2.52 1.47zm22.32 5.64c-1.96 0-3.42-.72-4.38-2.16-.96-1.44-1.44-3.26-1.44-5.46v-27.6h8.1v26.1c0 1.08.18 1.9.54 2.46.36.56.98.84 1.86.84.92 0 2.14-.54 3.66-1.62v-27.78h8.16V284h-8.16v-3.3c-2.68 2.56-5.46 3.84-8.34 3.84zm22.8-35.22h8.16v3.42c2.76-2.64 5.56-3.96 8.4-3.96 1.96 0 3.43.72 4.41 2.16.98 1.44 1.47 3.26 1.47 5.46V284h-8.16v-25.98c0-1.12-.17-1.94-.51-2.46-.34-.52-.95-.78-1.83-.78-.96 0-2.22.56-3.78 1.68V284h-8.16v-34.68zm36.24 35.22c-2.8 0-4.89-.99-6.27-2.97-1.38-1.98-2.07-5.11-2.07-9.39v-10.62c0-3.92.65-7.03 1.95-9.33 1.3-2.3 3.41-3.45 6.33-3.45 2.24 0 4.32.92 6.24 2.76V235.4h8.22V284h-8.22v-2.46c-1.92 2-3.98 3-6.18 3zm2.94-5.64c1.04 0 2.12-.38 3.24-1.14V255.5c-1.04-.76-2.12-1.14-3.24-1.14-2.08 0-3.12 1.82-3.12 5.46v12.96c0 1.96.22 3.47.66 4.53.44 1.06 1.26 1.59 2.46 1.59z"/>
        <path fill="#FFA400" fill-rule="nonzero" d="M354 153.2h-48.6v-23.6L347.6 31h32.2v100.2h16.6v22h-16.6V193H354v-39.8zm0-22V60.8l-25.6 70.4H354zm112.533 64.2c-13.733 0-24.2-4.267-31.4-12.8-7.2-8.533-10.8-19.933-10.8-34.2V76.6c0-14.8 3.467-26.4 10.4-34.8 6.934-8.4 17.534-12.6 31.8-12.6 14 0 24.534 4.233 31.6 12.7 7.067 8.467 10.6 20.033 10.6 34.7v71.8c0 14.267-3.6 25.667-10.8 34.2-7.2 8.533-17.666 12.8-31.4 12.8zm0-23.8c9.467 0 14.2-7.867 14.2-23.6V77c0-7.067-.966-12.833-2.9-17.3-1.933-4.467-5.7-6.7-11.3-6.7-5.733 0-9.533 2.233-11.4 6.7-1.866 4.467-2.8 10.233-2.8 17.3v71c0 6.533 1.034 12.1 3.1 16.7 2.067 4.6 5.767 6.9 11.1 6.9zm121.734-18.4h-48.6v-23.6l42.2-98.6h32.2v100.2h16.6v22h-16.6V193h-25.8v-39.8zm0-22V60.8l-25.6 70.4h25.6z"/>
        <use fill="#FFA400" transform="translate(61.935 45.022)" xlink:href="#a"/>
        <use fill="#323838" xlink:href="#b"/>
    </g>
</svg>
